<?xml version="1.0" encoding="utf-8"?>
<!-- Generator: Adobe Illustrator 28.2.0, SVG Export Plug-In . SVG Version: 6.00 Build 0)  -->
<svg version="1.1" id="Layer_1" xmlns="http://www.w3.org/2000/svg" xmlns:xlink="http://www.w3.org/1999/xlink" x="0px" y="0px"
	 viewBox="0 0 426.7 426.7" style="enable-background:new 0 0 426.7 426.7;" xml:space="preserve">
<style type="text/css">
	.st0{fill:#FFFFFF;}
</style>
<path class="st0" d="M181.3,213.3h64c36.9,0,53.3-16.4,53.3-53.3V77c-6.8-3.4-14-6.2-21.3-8.3V64c0-35.3-28.7-64-64-64
	c-35.3,0-64,28.7-64,64v4.7c-7.4,2.1-14.5,4.8-21.3,8.3v83C128,196.9,144.5,213.3,181.3,213.3z M170.7,64
	c0-23.6,19.1-42.7,42.7-42.7c23.6,0,42.7,19.1,42.7,42.7v0.7c-3.5-0.3-7.1-0.7-10.7-0.7h-64c-3.6,0-7.1,0.3-10.7,0.7V64z"/>
<path class="st0" d="M320,90.9V160c0,48.8-25.8,74.7-74.7,74.7h-64c-48.9,0-74.7-25.8-74.7-74.7V90.9c-27,22.3-42.7,55.4-42.7,90.4
	v192c0,29.4,23.9,53.3,53.3,53.3h192c29.4,0,53.3-23.9,53.3-53.3v-192C362.7,146.3,347,113.2,320,90.9z M266.7,341.3H256V352
	c0,5.9-4.8,10.7-10.7,10.7s-10.7-4.8-10.7-10.7v-10.7H160c-5.9,0-10.7-4.8-10.7-10.7S154.1,320,160,320h106.7
	c5.9,0,10.7,4.8,10.7,10.7S272.6,341.3,266.7,341.3z"/>
<path class="st0" d="M394.7,256H384v126.9c24.8-5.1,42.6-26.9,42.7-52.3V288C426.6,270.3,412.3,256,394.7,256z"/>
<path class="st0" d="M0,288v42.7c0,25.3,17.9,47.2,42.7,52.3V256H32C14.3,256,0,270.3,0,288z"/>
</svg>
