<?xml version="1.0" encoding="UTF-8"?>
<svg id="Layer_1" data-name="Layer 1" xmlns="http://www.w3.org/2000/svg" version="1.1" viewBox="0 0 512 512">
  <defs>
    <style>
      .cls-1 {
        fill: #fff;
        stroke-width: 0px;
      }
    </style>
  </defs>
  <path class="cls-1" d="M138.5,496.9H30.1c-7.5,0-15.1-7.5-15.1-15.1v-109.9c0-9,7.5-15.1,15.1-15.1h105.4v125c0,4.5,1.5,10.5,3,15.1Z"/>
  <path class="cls-1" d="M346.4,301.2v180.7c0,7.5-7.5,15.1-15.1,15.1h-150.6c-7.5,0-15.1-7.5-15.1-15.1v-180.7c0-9,7.5-15.1,15.1-15.1h150.6c7.5,0,15.1,6,15.1,15.1Z"/>
  <path class="cls-1" d="M496.9,391.5v90.4c0,7.5-7.5,15.1-15.1,15.1h-108.4c1.5-4.5,3-10.5,3-15.1v-105.4h105.4c7.5,0,15.1,6,15.1,15.1Z"/>
  <path class="cls-1" d="M378,120.5l-49.7,48.2,12,69.3c1.5,6-1.5,12-6,15.1s-12,3-16.6,1.5l-61.7-33.1-61.7,31.6c-4.5,3-10.5,3-15.1-1.5-4.5-3-7.5-9-6-15.1l12-69.3-51.2-46.7c-3-3-4.5-9-3-15.1s6-9,12-10.5l69.3-10.5,30.1-61.7c4.5-10.5,22.6-10.5,27.1,0l30.1,61.7,69.3,10.5c6,1.5,10.5,4.5,12,10.5s0,12-3,15.1h0Z"/>
</svg>