<?xml version="1.0" encoding="utf-8"?>
<!-- Generator: Adobe Illustrator 28.2.0, SVG Export Plug-In . SVG Version: 6.00 Build 0)  -->
<svg version="1.1" id="Layer_1" xmlns="http://www.w3.org/2000/svg" xmlns:xlink="http://www.w3.org/1999/xlink" x="0px" y="0px"
	 viewBox="0 0 884 248" style="enable-background:new 0 0 884 248;" xml:space="preserve">
<style type="text/css">
	.st0{fill-rule:evenodd;clip-rule:evenodd;fill:#242424;}
	.st1{fill:#242424;}
	.st2{fill-rule:evenodd;clip-rule:evenodd;}
</style>
<path d="M354.6,124.6c-6.5,3.2-12.5,5.3-18.2,6.1c-5.6,0.9-10.8,1.3-15.4,1.3c-4.7,0-8.9-0.6-12.5-1.8c-3.7-1.2-7-2.7-10.1-4.6
	c-3-1.8-5.8-3.8-8.3-5.9c-2.6-2.1-5.1-4.1-7.6-6c-2.5-1.8-5-3.3-7.6-4.5c-2.5-1.2-5.2-1.8-8.2-1.8c-2.7,0-5.5,0.3-8.3,0.8
	c3.4-4.1,5.9-8.9,7.6-14.5c1.6-5.6,2.4-11.5,2.4-17.7c0-1.8-0.1-3.6-0.3-5.5c-0.2-2-0.5-3.8-1-5.6c-0.4-1.9-1.1-3.6-2-5.2
	c-0.9-1.7-2-3.2-3.5-4.5c2.4-4.4,4-8.5,4.9-12.2c0.9-3.7,1.4-7.5,1.4-11.4c0-4-0.3-7.1-0.8-9.2c-0.4-2.2-1.2-4-2.2-5.2
	c-1-1.3-2.3-2.3-4-3.2c-1.5-0.9-3.5-2.2-5.8-3.7c1.6,0.2,3.2,0.3,4.6,0.4c1.5,0.1,3,0.1,4.5,0.1c3.4,0,6.6-0.2,9.5-0.5
	c2.9-0.3,5.6-0.7,8.2-1.2c2.6-0.4,5-0.8,7.4-1.2c2.4-0.3,4.8-0.5,7.3-0.5c1.7,0,3.5,0.1,5.5,0.4c-2.1,0-4.2,0.8-6.1,2.4
	c-1.9,1.6-3.6,3.7-5.1,6.3c-1.5,2.5-2.6,5.2-3.6,8.3c-0.9,3-1.3,5.9-1.3,8.8v32.4c0,2.8,0.1,5.5,0.3,8.1c0.3,2.5,0.6,4.7,0.9,6.8
	c0.4,2,0.9,3.7,1.4,5.1c0.5,1.5,1.1,2.5,1.7,3.1c-1.5,0.6-3.2,1.4-5.1,2.4c-1.9,0.9-3.3,2.4-4.4,4.4c0.5,1.7,2,3.8,4.5,6.4
	c2.6,2.5,5.5,4.9,8.8,7.4c3.3,2.6,6.7,4.9,10.2,6.9c3.6,2,6.6,3.5,9.1,4.2c-1.1-1.5-2.2-3.2-3.3-5.1c-1-1.9-1.9-3.5-2.6-5
	c3.9,2.4,7.6,4.4,10.9,6c3.3,1.6,6.4,2.9,9.3,4c3,1,5.8,1.7,8.6,2.2c2.7,0.4,5.5,0.6,8.3,0.6c1.5,0,2.9-0.1,4.5-0.3
	c1.5-0.1,3.2-0.2,4.9-0.4L354.6,124.6z"/>
<path d="M320.8,45.8c1.8-0.2,3.8-0.4,6-0.8c2.2-0.4,4.4-0.9,6.7-1.4c2.2-0.5,4.3-1,6.1-1.5c1.9-0.6,3.4-1.2,4.5-1.7
	c-0.2,1.5-0.3,2.8-0.5,4c-0.1,1.2-0.2,2.5-0.3,3.8c0,1.4,0,2.9-0.1,4.5c0,1.6,0,3.5,0,5.8v23.3l5.4,4.1l12.3-5.4V63.1
	c0-2.9-0.1-5.3-0.3-7.2c-0.1-1.9-0.3-3.4-0.8-4.5s-1-1.9-1.8-2.4c-0.7-0.6-1.7-1.1-2.9-1.4v-1.7c4.1-0.3,8.1-0.9,12-1.8
	c4-0.9,7.5-2.1,10.4-3.6v58.9c0,5.4,0,9.9,0.1,13.4c0.2,3.7,0.5,6.4,0.9,8.2c-2.4,0-5,0.3-7.8,1c-2.8,0.8-5.7,1.8-8.6,3.1
	c-2.8,1.3-5.6,2.8-8.3,4.5c-2.7,1.8-5.2,3.7-7.3,5.8c-4.9-3.6-9.4-6.2-13.6-7.8c-4.2-1.6-8.6-2.4-13.2-2.4c0.7-3.6,1.7-6.9,3.2-9.9
	c1.5-2.9,3.3-5.3,5.2-7.2c0.9,0.1,2.4,0.5,4.4,1.3c2,0.9,4.3,1.9,6.7,3.2s4.7,2.6,7,4.1c2.4,1.5,4.4,2.9,6.1,4.2l9.6-3.1
	c-0.2-1.1-0.3-2.3-0.5-3.7c-0.1-1.3-0.2-3-0.4-5.1c-0.1-2-0.2-4.6-0.3-7.7c0-3.2,0-7.1,0-11.9c-2.5,1.3-4.7,2.5-6.5,3.6
	c-1.9,1.1-3.6,2.2-5.1,3.3s-3,2.3-4.4,3.5c-1.3,1.1-2.6,2.3-4,3.7c-1.7-1.5-3.2-2.8-4.6-3.8c-1.3-1.1-2.6-2.1-3.8-2.9
	c-1.2-0.9-2.4-1.6-3.7-2.3c-1.2-0.8-2.6-1.6-4.1-2.4c0.3-0.4,0.6-1.5,0.9-3.2c0.3-1.8,0.6-3.9,0.9-6.3c0.3-2.5,0.4-5.1,0.5-7.9
	c0.2-2.8,0.3-5.5,0.3-8.1c0-2.9-0.1-5.4-0.4-7.6c-0.2-2.1-0.5-3.9-1-5.4c-0.5-1.5-1.2-2.8-2-3.7c-0.8-1-1.8-1.9-3.1-2.7L320.8,45.8z
	"/>
<path d="M413.6,40.5c5.9,2,10.8,3.3,14.7,4c3.9,0.7,7.6,1,10.9,1c1.9,0,3.3,0,4.2,0c1-0.1,2-0.2,2.9-0.4c-1,5.5-1.5,12.1-1.5,19.6
	c0,9.2,0.8,18.2,2.3,26.9c-2.1,0.3-4.4,0.8-6.8,1.7c-2.4,0.9-4.8,1.9-7.2,3.2c-2.4,1.3-4.7,2.8-6.9,4.5c-2.2,1.6-4.2,3.3-6,5.1
	c-0.9-0.8-2.6-1.6-4.9-2.4c-2.3-0.8-4.8-1.5-7.6-2.2c-2.7-0.7-5.5-1.2-8.2-1.7c-2.7-0.4-5-0.6-6.8-0.6c-0.5,0-1,0-1.5,0.1
	c-0.4,0-0.9,0-1.3,0.1c1.2-1,2-3,2.6-6c0.6-3.1,0.9-7,0.9-11.9c0-2.5-0.1-5.2-0.3-8.1c-0.2-3-0.4-5.8-0.8-8.4
	c-0.3-2.6-0.6-4.9-0.9-6.8s-0.7-3-1-3.5c3.3-0.6,7-2.1,11.1-4.6C405.8,47.6,409.8,44.4,413.6,40.5z M429,56.8
	c-3.9-0.3-7.8-0.9-11.5-1.7c-3.8-0.9-6.6-1.8-8.6-2.8c0.4,3.6,0.7,7,0.9,10.1c0.2,3.1,0.3,6.2,0.3,9.3c0,2.5-0.1,5.3-0.3,8.4
	c-0.1,3.1-0.2,6.1-0.4,9.1c2.9,0.3,6.1,0.8,9.6,1.4c3.5,0.6,6.7,1.4,9.7,2.3L429,56.8z"/>
<path d="M477.1,54.9c3.7-2.4,7-4.8,9.9-7.2c2.9-2.4,5.9-5.2,9-8.4c1.5,1.4,2.8,2.6,4,3.7c1.2,1,2.4,2,3.6,2.8c1.3,0.9,2.6,1.7,4,2.6
	c1.4,0.8,2.9,1.6,4.7,2.4c-0.3,1.2-0.6,2.5-0.9,3.8c-0.2,1.3-0.3,2.9-0.5,5c-0.1,2-0.2,4.6-0.3,7.6c-0.1,3-0.1,6.7-0.1,11.1
	c0,3.8,0,6.9,0,9.3c0.1,2.4,0.2,4.4,0.3,5.9s0.2,2.8,0.4,3.8c0.2,0.9,0.3,1.8,0.5,2.7c-1.7,0.6-3.5,1.4-5.2,2.4
	c-1.7,1-3.5,2.2-5.2,3.5c-1.7,1.3-3.3,2.6-4.9,4c-1.5,1.4-2.9,2.7-4.1,4l-0.8-0.8c0.5-1.7,1-3.8,1.4-6.4c0.4-2.5,0.8-4.9,1-7.4
	c0.3-2.6,0.5-4.9,0.6-7c0.2-2.1,0.3-3.7,0.3-4.6c0-4.9,0-9.7-0.1-14.6c0-4.9,0-9.7,0-14.6l-1.7-1.8l-15.7,7v27.5
	c0,5.4,1.2,8.5,3.5,9.3v1.9H457v-1.9c1-0.4,1.8-1.3,2.4-2.6c0.7-1.4,1-3.2,1-5.6V47.7l-4.7-2v-1.4c3-0.4,6.2-1,9.7-1.7
	c3.5-0.8,6.6-1.5,9.3-2.2l2.3,3.8V54.9z"/>
<path d="M616,40.3c-1.7-1.2-3.2-2.4-4.4-3.6c-1.1-1.3-2-2.6-2.8-4.1c-0.8-1.5-1.4-3-1.9-4.7c-0.5-1.7-0.9-3.6-1.3-5.6
	c-1.2-0.9-3.1-1.5-5.8-1.8c-2.6-0.3-5.3-0.4-8.1-0.4c-2.2,0-4.1,0-5.8,0.1c-1.6,0.1-3,0.1-4.2,0.1c-0.8,2.1-1.3,5.8-1.5,11
	c-0.3,5.1-0.4,11-0.4,17.7c0,3.6,0,7.3,0,11c0.1,3.8,0.1,7.5,0.1,11.1c0.1,3.7,0.1,7.3,0.1,10.8c0.1,3.4,0.1,6.6,0.1,9.6
	c2.6,0.6,4.7,1.2,6.3,1.7c1.6,0.4,3.2,0.8,4.7,1.2c1.5,0.3,3.3,0.5,5.2,0.8c2,0.2,4.6,0.3,7.8,0.5c0.2-0.7,0.3-2.1,0.3-4.4
	c0.1-2.3,0.1-4.9,0.1-7.9c0-3.3,0-6.1-0.1-8.3c0-2.2-0.1-4.4-0.3-6.7c-1.1,0-2-0.1-2.8-0.3c-0.7-0.3-1.5-0.5-2.6-0.8
	c-0.9-0.3-2.2-0.5-3.8-0.8c-1.5-0.3-3.6-0.5-6.3-0.6c0.3-0.6,0.8-1.4,1.3-2.3c0.5-1,1-2.1,1.5-3.2c0.5-1.1,0.9-2.1,1.3-3.1
	c0.4-1,0.7-1.9,0.9-2.6c3.2,0.7,6.4,1.2,9.5,1.5c3.2,0.3,6.1,0.5,9,0.5c2.9,0,5.5-0.2,7.9-0.5c2.4-0.4,4.4-1.1,6-2
	c-0.3,0.7-0.7,1.7-1.4,2.9c-0.6,1.2-1.2,2.5-1.9,4c-0.7,1.4-1.3,2.7-1.8,4.1c-0.5,1.4-0.8,2.6-0.8,3.6c0.3,3.6,0.5,7,0.6,10.4
	c0.2,3.3,0.3,6.4,0.5,9.1c0.3,2.6,0.5,4.9,0.6,6.7s0.4,2.9,0.6,3.5c-4,0.9-7.8,2.4-11.4,4.4c-3.6,2-7.8,5.1-12.5,9.1
	c-3.8-2.3-7.8-4.3-12-5.9s-8.5-3-12.7-4.2c-4.1-1.3-8.1-2.4-11.9-3.3c-3.8-0.9-7-1.9-9.9-2.8c1.4-0.3,2.5-1.2,3.5-2.4
	c1-1.4,1.8-3,2.4-5c0.7-2,1.2-4.1,1.5-6.5c0.3-2.5,0.5-4.9,0.5-7.4c0-3.8-0.4-7.5-1.3-11c-0.8-3.5-1.9-6.1-3.3-7.9
	c1.4-1.4,2.5-3.2,3.3-5.4c0.9-2.3,1.7-4.7,2.2-7.3c0.5-2.6,0.9-5.3,1-8.1c0.2-2.7,0.3-5.3,0.3-7.7c0-2,0-3.7-0.1-5.1
	c-0.1-1.5-0.2-2.6-0.3-3.3c-2-0.7-4-2.1-6.1-4.2c-2-2.1-3.6-4.4-4.6-6.9c5.5,0.6,10.6,1,15.5,1.3c4.9,0.2,9.6,0.3,14,0.3
	c9.5,0,17.2-0.3,23.3-0.9c6.1-0.6,10.8-0.9,14.1-0.9c0.7,0,1.3,0,1.8,0.1c0.5,0,1,0,1.4,0.1c-0.3,0.8-0.7,2.1-1.2,4
	c-0.3,1.8-0.7,3.8-1.2,6.1c-0.4,2.2-0.8,4.6-1.2,7.2c-0.3,2.5-0.7,4.8-1,7c-0.3,2.1-0.5,4-0.6,5.6S616,39.9,616,40.3z"/>
<path d="M653.7,90.5c1.9,0.2,3.8,0.3,5.8,0.4c2,0.1,4.6,0.5,7.6,1.2v-18c-2.5,0.9-4.9,1.7-7.2,2.4c-2.3,0.6-4.3,1-5.9,1.2
	L653.7,90.5z M686.7,49.6c-1.4,2-2.3,4.6-2.7,7.8c-0.3,3.2-0.5,8-0.5,14.2c0,4.1,0.1,7.4,0.3,9.9c0.3,2.4,0.6,4.3,1,5.8
	c0.4,1.4,1,2.3,1.8,2.9c0.8,0.5,1.7,0.9,2.8,1.2v1.4c-1.2,0.4-2.5,1.2-3.8,2.3c-1.3,1-2.6,2.2-3.8,3.5c-1.3,1.3-2.4,2.6-3.5,4
	c-1,1.4-1.8,2.6-2.3,3.6c-1.8-1.2-3.4-2.8-4.9-4.7c-1.5-2-2.6-3.9-3.5-5.9l-8.8,10.6c-3.2-2-6.8-3.5-10.8-4.5
	c-3.8-1-8.2-1.6-13.2-1.7c0.9-2.2,1.4-5,1.5-8.3c0.2-3.4,0.3-6.8,0.3-10.2c0-2-0.1-4-0.4-5.8c-0.3-1.9-0.7-3.5-1.3-5
	c1.9,0.3,3.9,0.4,6.1,0.4c2.4,0,4.8-0.1,7.3-0.3c2.6-0.3,5-0.6,7.3-1c2.3-0.4,4.4-0.9,6.3-1.4c2-0.6,3.6-1.2,4.9-1.9V53.7
	c-2.9,1.3-5.9,2.3-9.1,3.2c-3.2,0.9-5.8,1.3-7.8,1.3c-1.5,0-2.8-0.1-4.1-0.4c-1.2-0.3-2.3-0.9-3.3-1.8c-1-0.9-2-2.2-2.8-3.8
	c-0.8-1.6-1.5-3.7-2-6.3c0.5,0,0.9,0,1,0.1c0.3,0,0.9,0,1.9,0c6.1,0,11.4-0.6,15.9-1.7s7.9-2.4,10.4-3.8c2.8,3.1,5.7,5.4,8.7,6.9
	C678.6,48.9,682.3,49.6,686.7,49.6z"/>
<path d="M762,113.1c0.5-1.7,1-3.8,1.4-6.4c0.4-2.5,0.8-4.9,1-7.4c0.3-2.6,0.5-4.9,0.6-7s0.3-3.7,0.3-4.6c0-4.9,0-9.7-0.1-14.6
	c0-4.9,0-9.7,0-14.6l-1.7-1.8l-14.3,6.1c-0.1,1.9-0.1,4.4-0.1,7.4s0,6.2,0,9.3v11.6c0,5.4,1.2,8.5,3.5,9.3v1.9h-22.8v-1.9
	c1-0.4,1.8-1.3,2.4-2.6c0.7-1.4,1-3.2,1-5.6V58.5l-1.7-1.8l-14.2,6.1v28.4c0,5.4,1.2,8.5,3.5,9.3v1.9h-23.6v-1.9
	c1-0.4,1.8-1.3,2.4-2.6c0.7-1.4,1-3.2,1-5.6V47.7l-4.7-2v-1.4c3-0.4,6.2-1,9.7-1.7c3.5-0.8,6.6-1.5,9.3-2.2l2.3,3.8v10.5
	c3.3-2.4,6.3-4.7,9-7c2.7-2.4,5.5-5.2,8.3-8.4c1.5,1.4,2.8,2.6,4,3.7c1.2,1,2.4,2,3.6,2.8c1.3,0.9,2.6,1.7,4,2.6
	c1.4,0.8,2.9,1.6,4.7,2.4l-0.8,3.5c3.2-2.3,6-4.6,8.6-6.9c2.6-2.3,5.2-5,7.9-8.1c1.5,1.4,2.8,2.6,4,3.7c1.2,1,2.4,2,3.6,2.8
	c1.3,0.9,2.6,1.7,4,2.6c1.4,0.8,2.9,1.6,4.7,2.4c-0.3,1.2-0.6,2.5-0.9,3.8c-0.2,1.3-0.3,2.9-0.5,5c-0.1,2-0.2,4.6-0.3,7.6
	c-0.1,3-0.1,6.7-0.1,11.1c0,3.8,0,6.9,0,9.3c0.1,2.4,0.2,4.4,0.3,5.9c0.1,1.5,0.2,2.8,0.4,3.8c0.2,0.9,0.3,1.8,0.5,2.7
	c-1.7,0.6-3.5,1.4-5.2,2.4c-1.7,1-3.5,2.2-5.2,3.5c-1.7,1.3-3.3,2.6-4.9,4c-1.5,1.4-2.9,2.7-4.1,4L762,113.1z"/>
<path d="M819.1,106.6c-1.6-1.2-3.6-2.3-6-3.3c-2.4-1-4.9-1.9-7.4-2.6c-2.5-0.8-4.9-1.4-7.3-1.8c-2.3-0.4-4.2-0.6-5.8-0.6
	c0.7-1.1,1.3-2.6,1.8-4.6c0.5-2,0.9-4.2,1.2-6.5c0.3-2.4,0.6-4.8,0.6-7.3c0.2-2.5,0.3-4.7,0.3-6.8c0-5.2-0.3-9.5-1-12.9
	c-0.6-3.5-1.2-6.2-1.8-8.2c3.7-0.7,7-2,10-4c3.1-2,6.1-4.4,9.1-7.4c3.5,0.7,7.8,1.3,12.9,1.8c5.1,0.4,10.2,0.7,15.2,0.9
	c-0.3,1.5-0.4,3.5-0.4,5.8c0,1.8,0.1,3.8,0.3,5.9c0.2,2,0.4,4.1,0.6,6.1c0.3,2,0.6,4,1,5.9c0.4,1.9,0.9,3.5,1.4,4.9
	c-5.2,0.4-10.5,1-15.9,1.8c-5.4,0.7-10.6,1.5-15.7,2.3c-0.1,2.5-0.3,4.9-0.5,7.3c-0.3,2.4-0.5,4.5-0.6,6.3c1,0.4,2.3,0.8,3.8,1.2
	c1.6,0.3,3.3,0.7,5.1,1c1.8,0.3,3.5,0.5,5.2,0.8c1.7,0.2,3.2,0.3,4.4,0.4c0.4-2.6,1.5-4.9,3.1-6.8c1.7-1.9,4.6-3.4,8.6-4.6
	c-0.1,1-0.1,2-0.1,3.1c0,0.9,0,1.9,0,2.8c0,2.9,0.1,5.2,0.3,6.9c0.3,1.6,0.7,3.2,1.3,4.9c-1.6,0.2-3.5,0.5-5.8,1
	c-2.2,0.4-4.4,1-6.7,1.8c-2.2,0.7-4.4,1.4-6.4,2.2C821.8,104.9,820.3,105.7,819.1,106.6z M810.9,52.1c0.4,3.6,0.7,6.7,0.9,9.5
	c0.3,2.7,0.4,5.2,0.5,7.6l15-3.7c-0.4-1.7-0.8-3.5-1.2-5.4c-0.3-1.9-0.4-3.8-0.4-5.8c-2,0-4.4-0.2-7.2-0.5
	C815.8,53.3,813.3,52.7,810.9,52.1z"/>
<path d="M357.7,237.7c-4.9-1.7-9.7-3.6-14.5-5.6c-4.7-2-9.3-4.3-14-7c-1.1,1.1-2.1,2-2.9,2.8c-0.9,0.8-1.7,1.5-2.7,2
	c-0.9,0.5-2,0.9-3.1,1.3c-1,0.4-2.3,0.8-3.7,1.2c0.9-1,1.5-2.3,1.8-3.7c0.3-1.5,0.5-2.9,0.5-4.5c0-2.5-0.3-4.9-1-7.2
	c-0.6-2.4-1.2-4.4-1.7-6l-3.1-9.7c-2.5,3.2-4.9,6.8-7.4,10.8c-2.4,3.9-4.5,7.7-6.3,11.3c-1.5-2-3.4-4.9-5.9-8.7
	c-2.4-3.8-5.1-7.8-8.1-12.2l-2,6.7c-0.5,1.7-0.9,3.4-1.3,5.1c-0.3,1.7-0.4,3.5-0.4,5.2c0,2.6,0.3,5.2,1,7.8s1.8,4.9,3.3,7.2
	c-1.7-0.6-3.2-1.2-4.4-1.8c-1.1-0.6-2.2-1.3-3.2-2c-0.9-0.8-1.9-1.6-2.9-2.4c-0.9-0.9-2-2-3.3-3.2c-3.6,3.4-7.1,5.8-10.6,7.2
	c-3.5,1.5-7.4,2.2-11.8,2.3c1.6-0.3,3.3-1.3,5.1-3.2c1.8-1.8,3.5-4.1,5.2-7c1.7-3,3.3-6.4,4.9-10.1c1.6-3.8,3-7.7,4.2-11.9l4.1-14.3
	c-3-3.2-6.2-5.8-9.7-8.1c-3.5-2.3-6.7-3.5-9.5-3.5c-0.2,0-0.4,0-0.6,0c-0.3,0-0.8,0-1.5,0.1l-0.1-0.4c3.7-1.9,7.1-2.8,10.2-2.8
	c2.1,0,4.3,0.4,6.5,1.3c2.2,0.8,4.8,2,7.7,3.6l6.9-23.7c0.4-1.5,0.7-2.7,0.9-3.8c0.2-1.1,0.3-2,0.3-2.7c0-1.8-0.6-3.1-1.7-3.8
	c-1-0.8-2.9-1.2-5.6-1.2c-1.7,0-3.5,0.1-5.5,0.4c-2,0.3-4.3,0.6-7,1.2c0.5-0.8,1.7-1.7,3.7-2.7c2-1,4.3-2,7-2.9
	c2.8-0.9,5.8-1.7,9-2.3c3.2-0.7,6.4-1,9.3-1c2.2,0,4.4,0.3,6.4,0.8c2,0.5,3.6,1.4,4.6,2.7c1.5-0.1,3.2-0.3,5-0.6s3.5-0.7,5.1-1.2
	c1.6-0.5,3.1-1,4.4-1.4c1.3-0.5,2.1-0.9,2.6-1.2c-1.2,1.7-2.1,3.8-2.7,6.1c-0.5,2.3-0.8,4.8-0.8,7.6c0,3.5,0.4,7.2,1.2,11
	c0.8,3.8,1.7,7.3,2.7,10.5c1.1,3.2,2.3,6,3.5,8.3c1.2,2.3,2.2,3.7,3.1,4.2c0,5,0.9,10.4,2.6,16c1.8,5.6,4.1,11,6.8,16.1
	c2.8,5.1,5.9,9.7,9.3,13.8c3.5,4,6.9,7,10.2,9.1L357.7,237.7z M299.6,202.2c1.5-2,3.1-4.1,4.9-6.3c1.9-2.3,3.6-4.6,5.1-6.8l-9.9-32
	l-10.1,33c1.7,1.8,3.4,3.8,5.1,6C296.5,198.4,298.1,200.4,299.6,202.2z"/>
<path d="M405.6,196.6c0,4.8,0.1,8.6,0.3,11.4c0.2,2.8,0.5,5,0.9,6.7c0.5,1.5,1.1,2.6,1.8,3.3c0.8,0.6,1.7,1.1,2.8,1.4v1.4
	c-1.2,0.4-2.5,1.2-3.8,2.3c-1.3,1-2.6,2.2-3.8,3.5s-2.4,2.6-3.5,4c-1,1.4-1.8,2.6-2.3,3.6c-1.8-1.2-3.4-2.8-4.9-4.7
	c-1.5-2-2.6-3.9-3.5-5.9c-1.5,1-3.3,2-5.2,3.1c-2,1-4.1,2-6.3,2.9c-2.1,0.9-4.4,1.6-6.7,2.3c-2.3,0.8-4.5,1.4-6.7,1.9
	c-2-2.2-4.3-4.1-6.7-5.5c-2.4-1.5-4.8-2.5-7.3-3.2c0.9-3.6,1.5-7,1.7-10.1c0.2-3.2,0.3-6.5,0.3-9.7c0-4.1,0-7.6-0.1-10.5
	c-0.1-3-0.3-5.5-0.5-7.6c-0.2-2.1-0.4-3.8-0.6-5.1c-0.3-1.4-0.6-2.5-0.9-3.3c3.8-0.7,7.7-2,11.6-3.8c4-2,8-4.3,11.9-7
	c2.6,1.1,5.1,2,7.4,2.6c2.3,0.6,4.8,1,7.4,1.3V153c0-2.1,0-4.1-0.1-5.8s-0.3-3.3-0.6-4.7c-0.3-1.5-0.6-2.9-1.2-4.2
	c-0.5-1.4-1.2-2.8-1.9-4.2c1.7,0.6,3.7,0.9,6,0.9c2.8,0,5.8-0.5,8.8-1.4c3.2-0.9,6.5-2.3,10.1-4c-1.7,2-2.9,4.8-3.6,8.2
	c-0.6,3.4-0.9,7.3-0.9,11.8V196.6z M378.4,180.4c-1,0.9-2.4,2-4.2,3.2c-1.7,1.1-3.2,2-4.6,2.6c0.2,1.9,0.3,4.4,0.3,7.7
	c0.1,3.2,0.1,6.2,0.1,9.1c0,2.7-0.1,5.5-0.3,8.2c-0.1,2.7-0.2,5.2-0.4,7.6c1.7-0.1,3.5-0.3,5.4-0.6c2-0.4,3.8-0.9,5.6-1.4
	c1.8-0.5,3.5-1.1,5-1.7c1.5-0.7,2.8-1.3,3.7-1.9V183c-1.4-0.1-3.1-0.4-5.1-0.9C381.8,181.6,380,181,378.4,180.4z"/>
<path d="M445,234.1c-2.5-1.8-5.5-3.5-9.2-5.1s-7.5-2.9-11.4-3.8c0.1-1,0.2-2.2,0.3-3.5c0.1-1.4,0.1-2.7,0.1-4.1
	c0.1-1.5,0.1-2.8,0.1-4.1c0.1-1.4,0.1-2.5,0.1-3.5c0-7.8-0.6-14.3-1.8-19.6c-1.1-5.3-2.5-9.3-4.2-12.2l-3.7-0.8v-2.2
	c1.5-0.2,3.2-0.5,5.2-0.9c2-0.5,4.1-1.1,6-1.7c2-0.7,3.9-1.4,5.6-2c1.7-0.8,3-1.5,3.8-2.2c2,3,3.5,7.9,4.2,14.7
	c0.9,6.8,1.3,14.8,1.3,24.1c0,1.8,0,3.6,0,5.5c0,1.8,0,3.7-0.1,5.6l6.4,3.5h0.8c1.2-2,2.2-4.6,3.1-7.7c0.9-3.2,1.7-6.4,2.3-9.9
	c0.7-3.4,1.2-6.7,1.5-10c0.3-3.3,0.5-6.2,0.5-8.7c0-3.4-0.4-6-1.2-7.7c-0.7-1.7-1.7-2.9-3.2-3.6l0.1-2c3.3-0.3,6.7-0.7,10.1-1.3
	c3.4-0.7,6.8-1.5,10.1-2.6c-0.2,0.3-0.3,0.6-0.3,0.9c0,0.3,0,0.7,0,1.2c0,2.7,0.2,5.3,0.5,7.8c0.3,2.4,1.1,4.2,2.3,5.5l-12.4,37.9
	l-15.9,12.3H445z"/>
<path d="M507.8,234.6c-1.6-1.2-3.6-2.3-6-3.3c-2.4-1-4.9-1.9-7.4-2.6c-2.5-0.8-4.9-1.4-7.3-1.8c-2.3-0.4-4.2-0.6-5.8-0.6
	c0.7-1.1,1.3-2.6,1.8-4.6c0.5-2,0.9-4.2,1.2-6.5c0.3-2.4,0.6-4.8,0.6-7.3c0.2-2.5,0.3-4.7,0.3-6.8c0-5.2-0.3-9.5-1-12.9
	c-0.6-3.5-1.2-6.2-1.8-8.2c3.7-0.7,7-2,10-4c3.1-2,6.1-4.4,9.1-7.4c3.5,0.7,7.8,1.3,12.9,1.8c5.1,0.4,10.2,0.7,15.2,0.9
	c-0.3,1.5-0.4,3.5-0.4,5.8c0,1.8,0.1,3.8,0.3,5.9c0.2,2,0.4,4.1,0.6,6.1c0.3,2,0.6,4,1,5.9c0.4,1.9,0.9,3.5,1.4,4.9
	c-5.2,0.4-10.5,1-15.9,1.8c-5.4,0.7-10.6,1.5-15.7,2.3c-0.1,2.5-0.3,4.9-0.5,7.3c-0.3,2.4-0.5,4.5-0.6,6.3c1,0.4,2.3,0.8,3.8,1.2
	c1.6,0.3,3.3,0.7,5.1,1c1.8,0.3,3.5,0.5,5.2,0.8c1.7,0.2,3.2,0.3,4.4,0.4c0.4-2.6,1.5-4.9,3.1-6.8c1.7-1.9,4.6-3.4,8.6-4.6
	c-0.1,1-0.1,2-0.1,3.1c0,0.9,0,1.9,0,2.8c0,2.9,0.1,5.2,0.3,6.9c0.3,1.6,0.7,3.2,1.3,4.9c-1.6,0.2-3.5,0.5-5.8,1
	c-2.2,0.4-4.4,1-6.7,1.8c-2.2,0.7-4.4,1.4-6.4,2.2C510.6,232.9,509,233.7,507.8,234.6z M499.6,180.1c0.4,3.6,0.7,6.7,0.9,9.5
	c0.3,2.7,0.4,5.2,0.5,7.6l15-3.7c-0.4-1.7-0.8-3.5-1.2-5.4c-0.3-1.9-0.4-3.8-0.4-5.8c-2,0-4.4-0.2-7.2-0.5
	C504.6,181.3,502,180.7,499.6,180.1z"/>
<path d="M562.1,182.9c3.7-2.4,7-4.8,9.9-7.2c2.9-2.4,5.9-5.2,9-8.4c1.5,1.4,2.8,2.6,4,3.7c1.2,1,2.4,2,3.6,2.8
	c1.3,0.9,2.6,1.7,4,2.6c1.4,0.8,2.9,1.6,4.7,2.4c-0.3,1.2-0.6,2.5-0.9,3.8c-0.2,1.3-0.3,2.9-0.5,5c-0.1,2-0.2,4.6-0.3,7.6
	s-0.1,6.7-0.1,11.1c0,3.8,0,6.9,0,9.3c0.1,2.4,0.2,4.4,0.3,5.9s0.2,2.8,0.4,3.8c0.2,0.9,0.3,1.8,0.5,2.7c-1.7,0.6-3.5,1.4-5.2,2.4
	c-1.7,1-3.5,2.2-5.2,3.5c-1.7,1.3-3.3,2.6-4.9,4c-1.5,1.4-2.9,2.7-4.1,4l-0.8-0.8c0.5-1.7,1-3.8,1.4-6.4c0.4-2.5,0.8-4.9,1-7.4
	c0.3-2.6,0.5-4.9,0.6-7c0.2-2.1,0.3-3.7,0.3-4.6c0-4.9,0-9.7-0.1-14.6c0-4.9,0-9.7,0-14.6l-1.7-1.8l-15.7,7v27.5
	c0,5.4,1.2,8.5,3.5,9.3v1.9H542v-1.9c1-0.4,1.8-1.3,2.4-2.6c0.7-1.4,1-3.2,1-5.6v-44.7l-4.7-2v-1.4c3-0.4,6.2-1,9.7-1.7
	c3.5-0.8,6.6-1.5,9.3-2.2l2.3,3.8V182.9z"/>
<path d="M631.5,181.3v28.3c0,4.4,1.1,7.8,3.2,10c2.2,2.2,4.9,3.4,8.2,3.6v1.8c-1.5,0.5-3,1.2-4.6,1.9c-1.6,0.8-3.2,1.6-4.7,2.4
	c-1.5,0.8-3,1.6-4.4,2.4c-1.4,0.9-2.4,1.6-3.2,2.3c-2-1.2-4-2.3-6-3.5c-2-1.1-3.8-2-5.1-2.7v-47.6h-10.6v-1.4
	c3.8-1.5,7.3-3.7,10.6-6.7v-4.1c0-0.7-0.1-1.7-0.3-3.2c-0.1-1.5-0.2-3.1-0.4-4.6c-0.2-1.6-0.4-3.1-0.6-4.4c-0.3-1.4-0.6-2.3-0.9-2.7
	c3.8-0.3,7.4-1,10.6-2.3c3.2-1.3,6.7-2.9,10.4-4.9c-0.3,0.9-0.6,2.2-0.9,4c-0.3,1.8-0.5,3.7-0.8,5.8c-0.2,2-0.3,3.9-0.4,5.8
	c-0.1,1.8-0.1,3.1-0.1,3.8v6.8h18v0.5c-1.4,1.5-2.6,3.1-3.7,4.9c-1,1.8-1.7,3.5-2.2,5.2L631.5,181.3z"/>
<path d="M650.3,173.8c1.8-0.2,3.8-0.4,6-0.8c2.2-0.4,4.4-0.9,6.7-1.4c2.2-0.5,4.3-1,6.1-1.5c1.9-0.6,3.4-1.2,4.5-1.7
	c-0.2,1.5-0.3,2.8-0.5,4c-0.1,1.2-0.2,2.5-0.3,3.8c0,1.4,0,2.9-0.1,4.5c0,1.6,0,3.5,0,5.8v25.9l5.4,4.1l12.3-5.4v-20
	c0-2.9-0.1-5.3-0.3-7.2c-0.1-1.9-0.3-3.4-0.8-4.5s-1-1.9-1.8-2.4c-0.7-0.6-1.7-1.1-2.9-1.4v-1.7c4.1-0.3,8.1-0.9,12-1.8
	c4-0.9,7.5-2.1,10.4-3.6v30.2c0,4,0.1,7.3,0.3,9.9c0.2,2.5,0.5,4.5,0.9,6s1,2.6,1.7,3.3c0.8,0.7,1.7,1.2,2.9,1.4v1.4
	c-1.1,0.5-2.3,1.3-3.7,2.3c-1.4,1-2.7,2.2-4,3.5c-1.3,1.3-2.4,2.6-3.5,4c-1,1.3-1.8,2.5-2.3,3.6c-2.8-2.4-4.9-4.6-6.1-6.7
	c-1.2-2-2-4.6-2.4-7.6c-2.6,1.3-4.8,2.5-6.8,3.6c-1.9,1.1-3.6,2.2-5.2,3.3c-1.5,1.1-3,2.3-4.4,3.5c-1.3,1.2-2.6,2.5-4,3.8
	c-1.7-1.5-3.2-2.8-4.6-3.8c-1.3-1.1-2.6-2.1-3.8-2.9c-1.2-0.9-2.4-1.6-3.7-2.3c-1.2-0.8-2.6-1.6-4.1-2.4c0.3-0.5,0.6-1.7,0.9-3.5
	c0.3-1.8,0.6-4,0.9-6.5c0.3-2.6,0.4-5.3,0.5-8.2c0.2-3,0.3-5.8,0.3-8.6c0-3.1-0.1-5.7-0.4-7.9c-0.2-2.3-0.5-4.3-1-5.9
	c-0.5-1.6-1.2-2.9-2-4c-0.8-1.1-1.8-2-3.1-2.8L650.3,173.8z"/>
<path d="M741.5,189.4c2-3.2,3.8-6.5,5.5-10c1.7-3.5,3.3-7.2,4.7-11.1c1.6,1,3.9,2.1,6.9,3.2c3,1,6.3,2,9.9,2.8
	c-0.4,3.6-1.2,6.9-2.3,9.9c-1.1,2.9-2.5,5.3-4.2,7.3l-8.6-4.5h-1.5l-10.4,14.6v17.7c0,3,0.5,5.2,1.5,6.5c1.1,1.3,3,2.1,5.8,2.6v2.2
	h-27.4v-1.9c2.3-0.9,3.5-3.6,3.5-8.2v-44.7l-4.7-2v-1.4c3-0.4,6.2-1,9.7-1.7c3.5-0.8,6.6-1.5,9.3-2.2l2.3,3.8V189.4z"/>
<path d="M799.2,234.6c-1.6-1.2-3.6-2.3-6-3.3c-2.4-1-4.9-1.9-7.4-2.6c-2.5-0.8-4.9-1.4-7.3-1.8c-2.3-0.4-4.2-0.6-5.8-0.6
	c0.7-1.1,1.3-2.6,1.8-4.6c0.5-2,0.9-4.2,1.2-6.5c0.3-2.4,0.6-4.8,0.6-7.3c0.2-2.5,0.3-4.7,0.3-6.8c0-5.2-0.3-9.5-1-12.9
	c-0.6-3.5-1.2-6.2-1.8-8.2c3.7-0.7,7-2,10-4c3.1-2,6.1-4.4,9.1-7.4c3.5,0.7,7.8,1.3,12.9,1.8c5.1,0.4,10.2,0.7,15.2,0.9
	c-0.3,1.5-0.4,3.5-0.4,5.8c0,1.8,0.1,3.8,0.3,5.9c0.2,2,0.4,4.1,0.6,6.1c0.3,2,0.6,4,1,5.9c0.4,1.9,0.9,3.5,1.4,4.9
	c-5.2,0.4-10.5,1-15.9,1.8c-5.4,0.7-10.6,1.5-15.7,2.3c-0.1,2.5-0.3,4.9-0.5,7.3c-0.3,2.4-0.5,4.5-0.6,6.3c1,0.4,2.3,0.8,3.8,1.2
	c1.6,0.3,3.3,0.7,5.1,1c1.8,0.3,3.5,0.5,5.2,0.8c1.7,0.2,3.2,0.3,4.4,0.4c0.4-2.6,1.5-4.9,3.1-6.8c1.7-1.9,4.6-3.4,8.6-4.6
	c-0.1,1-0.1,2-0.1,3.1c0,0.9,0,1.9,0,2.8c0,2.9,0.1,5.2,0.3,6.9c0.3,1.6,0.7,3.2,1.3,4.9c-1.6,0.2-3.5,0.5-5.8,1
	c-2.2,0.4-4.4,1-6.7,1.8c-2.2,0.7-4.4,1.4-6.4,2.2C802,232.9,800.4,233.7,799.2,234.6z M791,180.1c0.4,3.6,0.7,6.7,0.9,9.5
	c0.3,2.7,0.4,5.2,0.5,7.6l15-3.7c-0.4-1.7-0.8-3.5-1.2-5.4c-0.3-1.9-0.4-3.8-0.4-5.8c-2,0-4.4-0.2-7.2-0.5
	C796,181.3,793.4,180.7,791,180.1z"/>
<path d="M852.3,178.9c-0.2,1.4-0.3,2.7-0.4,4c0,1.3,0,2.8,0,4.5s0,3.4,0.1,5.1c0.1,1.7,0.2,3.2,0.4,4.6c1.6-0.6,3.3-1.1,5-1.5
	c1.8-0.4,3.8-0.8,5.9-1.2c2.2-0.3,4.7-0.6,7.4-0.9c2.7-0.3,5.9-0.5,9.6-0.8c-0.3,3-0.4,7.3-0.4,13.1c0,4.9,0.1,9.2,0.3,13.1
	c0.2,3.8,0.5,6.6,0.9,8.6c-2.6,0-5.3,0.2-8.1,0.5c-2.7,0.3-5.3,0.8-7.8,1.4c-2.5,0.6-4.8,1.3-6.9,2.2c-2.1,0.9-3.9,1.8-5.4,2.8
	c-1-0.9-2.2-1.7-3.5-2.4c-1.2-0.7-2.6-1.2-4.4-1.7c-1.7-0.5-3.7-0.9-6-1.2c-2.3-0.3-5-0.6-8.2-0.8c0.2-2.6,0.7-5.3,1.5-8.1
	c0.9-2.8,2.1-5.1,3.5-6.8c2,0,5,0.7,9.2,2.2c4.2,1.5,9.7,3.7,16.6,6.8c0.5-2.7,0.9-5.2,1.2-7.4c0.3-2.3,0.4-4.7,0.4-7.2
	c0-1.5,0-2.6,0-3.3s0-1.3-0.1-1.9c-3.8,0.3-8.1,1-13.1,1.9c-4.9,0.9-9.6,1.9-14,3.1c0.3-3.7,0.6-6.5,0.6-8.4c0.1-2,0.1-3.9,0.1-5.5
	c0-3.8-0.2-7.2-0.6-10.1c-0.3-2.9-0.9-5.6-1.8-8.1c3.2,0,6.7-0.6,10.5-1.7c3.8-1.1,8.4-2.9,14.1-5.2c5.4,2.7,13.4,4.5,24.1,5.2
	c-1.5,3.7-3.3,6.4-5.2,8.1c-2,1.6-4.4,2.4-7.3,2.4c-1.3,0-2.7-0.1-4.4-0.4c-1.6-0.3-3.3-0.6-5-1.2c-1.6-0.5-3.2-1.1-4.9-1.7
	C854.9,180.4,853.5,179.7,852.3,178.9z"/>
<path class="st0" d="M60.7,84.1c1,0.5,1.9,1.1,2.8,1.1c-0.1,3.5,0.8,7.9,3.6,11.4c3.4,4.2,9.2,6.5,17.9,5.2c0.3,0.6,0.6,1.3,0.9,2.1
	h0l0,0c1.9,4.4,4.4,10.3,4.7,16.3l0,0.2c0-0.1,0-0.1,0-0.2c-0.8-16.9-4-28.4-11.3-34c-7.2-5.4-15.4-4.1-21-3.1c-0.1,0-0.2,0-0.3,0.1
	C58.7,83,59.7,83.5,60.7,84.1z M70.8,93.6c-1.8-2.2-2.4-5-2.5-7.5c2.7,0.7,5.5,2,8.1,4c2.3,1.7,4.5,4.1,6.4,7.2
	C76.2,97.9,72.7,95.9,70.8,93.6z"/>
<path class="st1" d="M72.8,137.7c-0.4,0-0.8,0.4-0.8,0.8v5.8h-5.7c-0.4,0-0.8,0.4-0.8,0.8v4.5c0,0.4,0.4,0.8,0.8,0.8H72v5.8
	c0,0.4,0.4,0.8,0.8,0.8h4.5c0.4,0,0.8-0.4,0.8-0.8v-5.8h5.7c0.4,0,0.8-0.4,0.8-0.8V145c0-0.4-0.4-0.8-0.8-0.8H78v-5.8
	c0-0.4-0.4-0.8-0.8-0.8H72.8z"/>
<path class="st0" d="M146.5,85.2c0.9-0.1,1.8-0.6,2.8-1.1c1-0.6,2-1.1,2.7-1c-0.1,0-0.2,0-0.3-0.1c-5.6-0.9-13.8-2.3-21,3.1
	c-7.4,5.6-10.5,17.1-11.3,34c0,0.1,0,0.1,0,0.2l0-0.2c0.3-6,2.8-11.9,4.7-16.3l0,0c0.3-0.7,0.6-1.4,0.9-2.1c8.8,1.3,14.5-1,17.9-5.2
	C145.7,93.1,146.5,88.7,146.5,85.2z M141.7,86c-0.1,2.5-0.8,5.4-2.5,7.5c-1.9,2.3-5.4,4.3-12,3.6c1.9-3.1,4.1-5.5,6.4-7.2
	C136.2,88,139,86.8,141.7,86z"/>
<path class="st1" d="M138.4,140.8c0-1.9-1.5-3.4-3.4-3.4c-1.9,0-3.4,1.5-3.4,3.4s1.5,3.4,3.4,3.4
	C136.9,144.2,138.4,142.7,138.4,140.8z"/>
<path class="st1" d="M135,150.1c1.9,0,3.4,1.5,3.4,3.4c0,1.9-1.5,3.4-3.4,3.4c-1.9,0-3.4-1.5-3.4-3.4
	C131.7,151.6,133.2,150.1,135,150.1z"/>
<path class="st1" d="M145.1,147.1c0-1.9-1.5-3.4-3.4-3.4c-1.9,0-3.4,1.5-3.4,3.4c0,1.9,1.5,3.4,3.4,3.4
	C143.6,150.5,145.1,149,145.1,147.1z"/>
<path class="st1" d="M128.3,143.8c1.9,0,3.4,1.5,3.4,3.4c0,1.9-1.5,3.4-3.4,3.4c-1.9,0-3.4-1.5-3.4-3.4
	C124.9,145.3,126.4,143.8,128.3,143.8z"/>
<path class="st0" d="M45.1,10.1C64.8,5.3,86.7,0,105,0c18.3,0,40.2,5.3,59.9,10.1c13.7,3.3,26.3,6.4,35.8,7.2
	c6.5,0.6,10.1,0.9,9.1,1c0,0-20.9,142.7-28.6,163.3c-5.3,14.3-23.7,25.3-41.1,35.8c-16.5,9.9-32.1,19.3-35.2,30.5
	c-3.1-11.2-18.7-20.6-35.2-30.5c-17.4-10.5-35.7-21.5-41.1-35.8C21.1,161,0.2,18.3,0.2,18.3c-1-0.1,2.7-0.4,9.1-1
	C18.8,16.5,31.4,13.4,45.1,10.1z M90.1,55.4c6.1,2.9,11.1,5.3,14.9,5.3v98v-18.4c-3.4-0.9-6.3-2.5-8.6-4.4c3.1-0.8,5.1-1.1,8.6-1.1
	v-5.3c-4.6,0.1-6.9,0.5-9.2,0.9c-1.2,0.2-2.4,0.5-4,0.6c-0.2-0.1-0.5-0.2-0.8-0.4h0l0,0c-1.4-0.6-3.3-1.5-3.7-2.3
	c0.1,0.2,0.2,0.4,0.3,0.6l0,0c2,4.2,5.6,11.9,13.5,15.1v9.9c-2.8,0.2-5.1,0.6-7.1,1.3c-2.5,0.9-4.5,2-6.2,3.2
	c-0.3,0.2-0.7,0.4-1,0.6c-2.9,1.9-5.4,3.6-10.3,4.2c-0.6,0.1-1.1,0.1-1.7,0.1c-9.7,0-17.6-7.8-17.6-17.4c0-7.1,4.2-13.2,10.3-15.9
	c-5.5-1.7-15.3-7.6-15.9-20.2c-0.7-13.2-5.2-38.2-7.4-49c-0.9-6.6,1.9-18.7,20.6-15C74.5,47.9,83.1,52,90.1,55.4z M78.9,167.8
	c4.9-0.9,7.8-2.9,10.5-4.7l0,0h0h0l0,0c0.3-0.2,0.6-0.4,0.9-0.6c1.6-1,3.1-2,5.1-2.6c2-0.7,4.5-1.1,8-1.1h1.6v29.5
	C86.5,188.2,79.5,175.4,78.9,167.8z M119.9,55.4c-6.1,2.9-11.1,5.3-14.9,5.3v68.8c4.6,0.1,6.9,0.5,9.2,0.9c1.2,0.2,2.4,0.5,4,0.6
	c0.2-0.1,0.5-0.2,0.8-0.4v0c1.4-0.6,3.3-1.5,3.7-2.3c0,0.1-0.1,0.2-0.1,0.3c-0.1,0.1-0.1,0.2-0.2,0.3l0,0c-2,4.2-5.6,11.9-13.5,15.1
	v9.9c2.8,0.2,5.1,0.6,7.1,1.3c2.5,0.9,4.5,2,6.2,3.2c0.3,0.2,0.7,0.4,1,0.6c2.9,1.9,5.4,3.6,10.3,4.2c0.6,0.1,1.1,0.1,1.7,0.1
	c9.7,0,17.6-7.8,17.6-17.4c0-7.1-4.2-13.2-10.3-15.9c5.5-1.7,15.3-7.6,15.9-20.2c0.7-13.2,5.2-38.2,7.4-49c0.9-6.6-1.9-18.7-20.6-15
	C135.5,47.9,126.9,52,119.9,55.4z M131.1,167.8c-4.9-0.9-7.8-2.9-10.5-4.7v0l0,0l0,0c-0.3-0.2-0.6-0.4-0.9-0.6c-1.6-1-3.1-2-5.1-2.6
	c-2-0.7-4.5-1.1-8-1.1H105v29.5C123.5,188.2,130.5,175.4,131.1,167.8z M105,140.3c3.4-0.9,6.3-2.5,8.6-4.4c-3.1-0.8-5.1-1.1-8.6-1.1
	V140.3z"/>
<path class="st2" d="M63.5,85.2c-0.9-0.1-1.8-0.6-2.8-1.1c-1-0.6-2-1.1-2.7-1l0.3-0.1c5.6-0.9,13.8-2.3,21,3.1
	c7.4,5.6,10.5,17.1,11.3,34c-0.3-6-2.8-11.9-4.7-16.3c-0.3-0.7-0.6-1.4-0.9-2.1c-8.8,1.3-14.5-1-17.9-5.2
	C64.3,93.1,63.5,88.7,63.5,85.2z M68.3,86c0.1,2.5,0.8,5.4,2.5,7.5c1.9,2.3,5.4,4.3,12,3.6c-1.9-3.1-4.1-5.5-6.4-7.2
	C73.8,88,71,86.8,68.3,86z"/>
<path d="M90.6,120.4c0-0.1,0-0.1,0-0.2L90.6,120.4z"/>
<path d="M72,138.5c0-0.4,0.4-0.8,0.8-0.8h4.5c0.4,0,0.8,0.4,0.8,0.8v5.8h5.7c0.4,0,0.8,0.4,0.8,0.8v4.5c0,0.4-0.4,0.8-0.8,0.8H78
	v5.8c0,0.4-0.4,0.8-0.8,0.8h-4.5c-0.4,0-0.8-0.4-0.8-0.8v-5.8h-5.7c-0.4,0-0.8-0.4-0.8-0.8V145c0-0.4,0.4-0.8,0.8-0.8H72V138.5z"/>
<path class="st2" d="M105,0C86.7,0,64.8,5.3,45.1,10.1c-13.7,3.3-26.3,6.4-35.8,7.2c-6.5,0.6-10.1,0.9-9.1,1
	c0,0,20.9,142.7,28.6,163.3c5.3,14.3,23.7,25.3,41.1,35.8c16.5,9.9,32.1,19.3,35.2,30.5V0z M105,60.7c-3.7,0-8.8-2.4-14.9-5.3
	c-7-3.4-15.6-7.5-25.4-9.5c-18.6-3.8-21.5,8.4-20.6,15c2.2,10.8,6.7,35.8,7.4,49c0.7,12.6,10.4,18.5,15.9,20.2
	c-6.1,2.7-10.3,8.8-10.3,15.9c0,9.6,7.9,17.4,17.6,17.4c0.6,0,1.1,0,1.7-0.1c4.9-0.6,7.4-2.3,10.3-4.2c0.3-0.2,0.6-0.4,1-0.6
	c1.7-1.1,3.7-2.3,6.2-3.2c2-0.7,4.3-1.2,7.1-1.3v-9.9c-8-3.2-11.5-10.8-13.5-15.1l0,0l-0.1-0.3c-0.1-0.1-0.1-0.2-0.2-0.4
	c0.4,0.8,2.4,1.7,3.7,2.3l0,0l0,0c0.3,0.1,0.6,0.3,0.8,0.4c1.5-0.2,2.8-0.4,4-0.6c2.3-0.4,4.7-0.9,9.2-0.9v5.3
	c-3.5,0-5.5,0.3-8.6,1.1c2.3,1.9,5.2,3.5,8.6,4.4v18.4h-1.6c-3.5,0-6,0.5-8,1.1c-2,0.7-3.5,1.6-5.1,2.6c-0.3,0.2-0.6,0.4-0.9,0.6
	l0,0l0,0c-2.6,1.8-5.6,3.7-10.5,4.7c0.7,7.6,7.6,20.4,26.1,20.4v-29.5V60.7z"/>
</svg>
