<?xml version="1.0" encoding="UTF-8"?>
<svg id="Layer_1" data-name="Layer 1" xmlns="http://www.w3.org/2000/svg" viewBox="0 0 210 248">
  <defs>
    <style>
      .cls-1, .cls-2, .cls-3, .cls-4 {
        stroke-width: 0px;
      }

      .cls-1, .cls-3 {
        fill: #242424;
      }

      .cls-1, .cls-4 {
        fill-rule: evenodd;
      }
    </style>
  </defs>
  <path class="cls-1" d="M60.74,84.1c.95.53,1.94,1.09,2.8,1.14-.07,3.51.76,7.89,3.59,11.37,3.39,4.17,9.16,6.48,17.93,5.17.26.64.56,1.34.87,2.08h0c1.85,4.37,4.36,10.29,4.7,16.31v.2c0-.07,0-.14,0-.2-.79-16.91-3.96-28.39-11.32-34-7.16-5.45-15.37-4.07-21-3.13-.1.02-.2.03-.3.05.73-.12,1.71.43,2.74,1ZM70.83,93.58c-1.75-2.16-2.45-5.01-2.51-7.55,2.7.73,5.48,1.99,8.08,3.97,2.29,1.75,4.5,4.1,6.39,7.23-6.58.65-10.07-1.33-11.96-3.65Z"/>
  <path class="cls-3" d="M72.76,137.66c-.44,0-.8.36-.8.8v5.76h-5.74c-.44,0-.8.36-.8.8v4.48c0,.44.36.8.8.8h5.74v5.76c0,.44.36.8.8.8h4.47c.44,0,.8-.36.8-.8v-5.76h5.74c.44,0,.8-.36.8-.8v-4.48c0-.44-.36-.8-.8-.8h-5.74v-5.76c0-.44-.36-.8-.8-.8h-4.47Z"/>
  <path class="cls-1" d="M146.46,85.24c.85-.05,1.84-.61,2.8-1.14,1.03-.58,2.01-1.13,2.74-1-.1-.02-.2-.03-.3-.05-5.63-.94-13.84-2.32-21,3.13-7.37,5.61-10.53,17.09-11.32,34,0,.07,0,.14-.01.2v-.2c.34-6.02,2.85-11.94,4.71-16.31h0c.31-.74.61-1.43.87-2.08,8.77,1.31,14.55-1,17.93-5.17,2.83-3.48,3.66-7.86,3.59-11.37ZM141.68,86.03c-.06,2.54-.76,5.39-2.51,7.55-1.88,2.32-5.37,4.29-11.95,3.65,1.89-3.13,4.09-5.48,6.39-7.23,2.6-1.98,5.39-3.24,8.08-3.97Z"/>
  <path class="cls-3" d="M138.36,140.82c0-1.86-1.5-3.36-3.35-3.36s-3.35,1.51-3.35,3.36,1.5,3.36,3.35,3.36,3.35-1.51,3.35-3.36Z"/>
  <path class="cls-3" d="M135.01,150.09c1.85,0,3.35,1.51,3.35,3.36s-1.5,3.36-3.35,3.36-3.35-1.51-3.35-3.36,1.5-3.36,3.35-3.36Z"/>
  <path class="cls-3" d="M145.07,147.14c0-1.86-1.5-3.36-3.35-3.36s-3.35,1.51-3.35,3.36,1.5,3.36,3.35,3.36,3.35-1.51,3.35-3.36Z"/>
  <path class="cls-3" d="M128.3,143.77c1.85,0,3.35,1.51,3.35,3.36s-1.5,3.36-3.35,3.36-3.35-1.51-3.35-3.36,1.5-3.36,3.35-3.36Z"/>
  <path class="cls-1" d="M45.11,10.1C64.76,5.32,86.65,0,105,0s40.24,5.32,59.89,10.1c13.68,3.32,26.27,6.39,35.83,7.21,6.45.55,10.09.87,9.13.98,0,0-20.91,142.74-28.6,163.35-5.33,14.29-23.67,25.34-41.08,35.83-16.46,9.92-32.1,19.34-35.16,30.54-3.06-11.2-18.7-20.62-35.16-30.54-17.41-10.49-35.75-21.54-41.08-35.83C21.06,161.02.15,18.28.15,18.28c-.97-.11,2.67-.42,9.13-.98,9.56-.82,22.15-3.88,35.83-7.21ZM90.11,55.36c6.13,2.94,11.14,5.35,14.88,5.35v98.02-18.43c-3.39-.86-6.27-2.5-8.62-4.4,3.08-.81,5.14-1.07,8.62-1.11v-5.28c-4.57.06-6.9.5-9.25.95-1.22.23-2.44.46-3.99.64-.22-.11-.51-.24-.83-.39h0c-1.35-.62-3.34-1.53-3.72-2.33.09.2.19.4.29.61h0c1.97,4.22,5.55,11.9,13.51,15.07v9.94c-2.82.17-5.14.64-7.14,1.33-2.54.87-4.48,2.03-6.2,3.16-.33.22-.65.43-.97.64-2.91,1.93-5.44,3.62-10.32,4.22-.56.05-1.12.08-1.69.08-9.69,0-17.55-7.81-17.55-17.44,0-7.08,4.24-13.17,10.34-15.91-5.51-1.66-15.26-7.59-15.93-20.18-.7-13.25-5.24-38.22-7.42-49.05-.9-6.56,1.95-18.74,20.59-14.96,9.83,1.99,18.36,6.09,25.41,9.47ZM78.87,167.8c4.86-.94,7.81-2.91,10.46-4.67h0s0,0,0,0h0c.32-.21.63-.42.94-.62,1.6-1.05,3.15-1.96,5.13-2.64,1.98-.67,4.49-1.14,8-1.14h1.6v29.49c-18.47,0-25.46-12.83-26.12-20.41ZM119.89,55.36c-6.13,2.94-11.14,5.35-14.88,5.35v68.8c4.57.06,6.9.5,9.25.95,1.22.23,2.44.46,3.99.64.22-.11.51-.24.84-.39h0c1.35-.62,3.34-1.53,3.72-2.33-.04.09-.09.18-.13.28-.05.11-.1.22-.16.34h0c-1.97,4.22-5.55,11.89-13.51,15.06v9.94c2.82.17,5.14.64,7.14,1.33,2.54.87,4.48,2.03,6.2,3.16.33.22.65.43.97.64,2.91,1.93,5.44,3.62,10.32,4.22.56.05,1.12.08,1.7.08,9.69,0,17.55-7.81,17.55-17.44,0-7.08-4.24-13.17-10.34-15.91,5.51-1.66,15.26-7.59,15.93-20.18.7-13.25,5.24-38.22,7.42-49.05.9-6.56-1.95-18.74-20.58-14.96-9.83,1.99-18.36,6.09-25.41,9.47ZM131.13,167.8c-4.86-.94-7.81-2.91-10.46-4.67h0s0,0,0,0c-.32-.21-.63-.42-.94-.62-1.6-1.05-3.15-1.96-5.12-2.64-1.98-.67-4.49-1.14-8-1.14h-1.6v29.49c18.47,0,25.46-12.83,26.12-20.41ZM105,140.29c3.39-.86,6.27-2.5,8.62-4.4-3.08-.81-5.14-1.07-8.62-1.11v5.51Z"/>
  <path class="cls-4" d="M63.54,85.24c-.85-.05-1.84-.61-2.8-1.14-1.03-.58-2.01-1.13-2.74-1l.3-.05c5.63-.94,13.84-2.32,21,3.13,7.37,5.61,10.53,17.09,11.32,34-.33-6.02-2.84-11.94-4.7-16.31-.31-.74-.61-1.43-.87-2.08-8.77,1.31-14.55-1-17.93-5.17-2.83-3.48-3.66-7.86-3.59-11.37ZM68.32,86.03c.06,2.54.76,5.39,2.51,7.55,1.88,2.32,5.37,4.29,11.96,3.65-1.89-3.13-4.09-5.48-6.39-7.23-2.6-1.98-5.39-3.24-8.08-3.97Z"/>
  <path class="cls-2" d="M90.63,120.38c0-.07,0-.14-.01-.2v.2Z"/>
  <path class="cls-2" d="M71.96,138.46c0-.44.36-.8.8-.8h4.47c.44,0,.8.36.8.8v5.76h5.74c.44,0,.8.36.8.8v4.48c0,.44-.36.8-.8.8h-5.74v5.76c0,.44-.36.8-.8.8h-4.47c-.44,0-.8-.36-.8-.8v-5.76h-5.74c-.44,0-.8-.36-.8-.8v-4.48c0-.44.36-.8.8-.8h5.74v-5.76Z"/>
  <path class="cls-4" d="M105,0c-18.35,0-40.24,5.32-59.89,10.1-13.67,3.32-26.27,6.39-35.83,7.21-6.45.55-10.09.87-9.13.98,0,0,20.91,142.74,28.6,163.35,5.33,14.29,23.67,25.34,41.08,35.83,16.46,9.92,32.1,19.34,35.16,30.54V0ZM105,60.71c-3.75,0-8.75-2.4-14.88-5.35-7.04-3.38-15.58-7.48-25.41-9.47-18.64-3.78-21.49,8.4-20.59,14.96,2.18,10.83,6.72,35.8,7.42,49.05.67,12.59,10.42,18.52,15.93,20.18-6.1,2.73-10.34,8.83-10.34,15.91,0,9.63,7.86,17.44,17.55,17.44.57,0,1.14-.03,1.69-.08,4.88-.6,7.41-2.28,10.32-4.22.32-.21.64-.42.97-.64,1.72-1.13,3.66-2.29,6.2-3.16,2.01-.68,4.32-1.16,7.14-1.33v-9.94c-7.96-3.17-11.54-10.85-13.51-15.06h0s-.12-.27-.12-.27c-.06-.12-.11-.24-.16-.35.38.81,2.37,1.71,3.72,2.33h0s0,0,0,0c.33.15.61.28.83.39,1.55-.18,2.77-.41,3.99-.64,2.34-.44,4.67-.89,9.25-.95v5.28c-3.48.04-5.53.31-8.62,1.11,2.35,1.9,5.23,3.53,8.62,4.4v18.43h-1.6c-3.51,0-6.02.47-8,1.14-1.98.67-3.53,1.59-5.13,2.64-.31.2-.62.41-.94.62h0s0,0,0,0c-2.65,1.77-5.6,3.74-10.46,4.67.66,7.58,7.65,20.41,26.12,20.41V60.71Z"/>
</svg>